<svg id="visual" viewBox="0 0 900 600" width="900" height="600" xmlns="http://www.w3.org/2000/svg" xmlns:xlink="http://www.w3.org/1999/xlink" version="1.1"><g transform="translate(815.1286777995106 -30.80575099182309)"><path d="M355.9 -472.8C463.9 -484.4 555.8 -390.1 610.2 -276.9C664.7 -163.7 681.8 -31.6 603.3 43.2C524.8 118.1 350.8 135.6 269.6 238.8C188.3 342 199.8 530.8 161.5 535.3C123.3 539.7 35.2 359.8 -45.9 279.6C-126.9 199.4 -201 218.9 -287.7 202.6C-374.4 186.4 -473.8 134.4 -485.7 68.3C-497.6 2.2 -422.1 -78 -377.3 -170.7C-332.5 -263.4 -318.4 -368.5 -260.7 -379.8C-202.9 -391.1 -101.5 -308.5 11.3 -326.1C124 -343.6 248 -461.2 355.9 -472.8" fill="#1f2843"></path></g></svg>