<svg id="visual" viewBox="0 0 900 600" width="900" height="600" xmlns="http://www.w3.org/2000/svg" xmlns:xlink="http://www.w3.org/1999/xlink" version="1.1"><g transform="translate(1060.7367294343971 34.175498986531295)"><path d="M322.9 -510.6C383.4 -463.5 373.2 -314.6 369.4 -203.7C365.7 -92.7 368.4 -19.7 358.8 52C349.2 123.8 327.3 194.2 287.3 259.8C247.3 325.4 189.3 386.3 114.7 422.9C40.1 459.6 -51.1 472.1 -133.2 449.7C-215.3 427.4 -288.3 370.2 -386.6 307C-485 243.8 -608.7 174.5 -662.2 70.5C-715.7 -33.6 -699 -172.6 -631.7 -275.4C-564.4 -378.2 -446.5 -444.8 -332.8 -467.6C-219.1 -490.3 -109.6 -469.2 10.8 -486C131.2 -502.8 262.4 -557.6 322.9 -510.6" fill="#1f2843"></path></g></svg>