<svg id="visual" viewBox="0 0 900 600" width="900" height="600" xmlns="http://www.w3.org/2000/svg" xmlns:xlink="http://www.w3.org/1999/xlink" version="1.1"><g transform="translate(841.5339391555572 174.47071234229549)"><path d="M542.6 -631.6C667.3 -541.9 707.9 -336.9 654.8 -182.8C601.7 -28.6 455 74.7 344.2 134.8C233.3 195 158.3 212 81.4 252.5C4.5 293 -74.4 357 -134.2 345.3C-193.9 333.7 -234.7 246.3 -309.4 158.5C-384.2 70.6 -492.9 -17.7 -537.8 -152.4C-582.6 -287 -563.5 -467.9 -463.2 -561.9C-363 -655.9 -181.5 -662.9 13.7 -679.3C208.9 -695.6 417.8 -721.3 542.6 -631.6" fill="#b9f5e7"></path></g></svg>