<svg id="visual" viewBox="0 0 900 600" width="1000" height="700" xmlns="http://www.w3.org/2000/svg" xmlns:xlink="http://www.w3.org/1999/xlink" version="1.1"><g transform="translate(992.7837752489141 -28.686445390612107)"><path d="M316.2 -480C409.3 -432.2 483.9 -343.6 524.3 -243C564.7 -142.4 570.9 -29.7 598.1 117C625.3 263.8 673.5 444.6 594.5 489.2C515.5 533.9 309.3 442.3 156.1 449.9C3 457.4 -97 564.1 -203.5 583.1C-310.1 602.1 -423.4 533.5 -551.4 444.9C-679.4 356.2 -822.2 247.5 -823.3 128.7C-824.4 9.8 -683.7 -119.1 -572.3 -219.2C-461 -319.3 -378.9 -390.6 -288.4 -439.6C-197.9 -488.6 -98.9 -515.3 6.3 -525.1C111.6 -534.9 223.1 -527.8 316.2 -480" fill="#ceebe5"></path></g></svg>