<svg id="visual" viewBox="0 0 900 600" width="900" height="600" xmlns="http://www.w3.org/2000/svg" xmlns:xlink="http://www.w3.org/1999/xlink" version="1.1"><g transform="translate(858.8343994263049 -55.40600228376945)"><path d="M393.8 -518C537 -520.6 698.3 -456.6 752.7 -342.3C807 -228.1 754.4 -63.6 733.9 108.3C713.5 280.1 725.2 459.3 640 550.9C554.9 642.5 373 646.5 233 598.6C93 550.6 -5 450.7 -105.6 401.9C-206.2 353.1 -309.4 355.3 -412.4 314.1C-515.3 272.9 -617.9 188.3 -664.8 75.8C-711.7 -36.6 -702.9 -176.8 -635.6 -276.2C-568.3 -375.6 -442.6 -434.3 -326.9 -444.3C-211.2 -454.3 -105.6 -415.7 9.8 -430.9C125.2 -446.2 250.5 -515.4 393.8 -518" fill="#1f2843"></path></g></svg>