<svg xmlns="http://www.w3.org/2000/svg" xmlns:xlink="http://www.w3.org/1999/xlink" viewBox="0 0 900 500"><defs><clipPath id="clip-path"><rect x="-911.90939" width="900" height="500" style="fill:none"/></clipPath></defs><g id="OBJECTS"><g style="clip-path:url(#clip-path)"><circle cx="130.40822" cy="385.61088" r="2.62254" style="fill:#2a1e17"/><path d="M130.99943,384.65738s20.59128-61.31171-71.4663-25.14041C-36.17459,397.12249-74.39832,475.9742-58.71841,482.19756s39.0339-7.81677,39.0339-7.81677" style="fill:none;stroke:#2a1e17;stroke-linecap:round;stroke-linejoin:round"/></g></g><g id="Layer_3" data-name="Layer 3"><path d="M546.57715,156.627c-45.2041-42.71338-98.57129-52.94336-110.71582-54.78027,9.40527-25.40772,24.26855-63.98975,27.57324-68.56006a51.27565,51.27565,0,0,1,7.34375-.44824c10.11328,0,31.74512,2.1001,62.99609,16.1626,46.00782,20.7041,57.83008,44.3667,59.87793,49.34326Z" style="fill:#fff"/><path d="M470.77808,34.83852c9.95251,0,31.26428,2.07691,62.1748,15.98665,26.40527,11.88238,41.09546,24.61932,48.76917,33.21191a58.203,58.203,0,0,1,9.61816,13.98662l-44.968,55.6746c-26.26318-24.2816-54.77331-37.61772-74.40112-44.58734a200.70968,200.70968,0,0,0-33.38062-8.87437c10.61414-28.59818,22.50916-58.9318,26.04663-65.09022a54.74834,54.74834,0,0,1,6.141-.30785m0-4a45.8433,45.8433,0,0,0-8.27991.57691c-3.19483,1.06494-29.37708,72.07706-29.37708,72.07706s62.14844,6.34017,113.64637,56.08248l49.1571-60.86119s-8.20288-27.629-61.3302-51.53629c-31.13269-14.00972-52.832-16.339-63.81628-16.339Z" style="fill:#a0c6f4"/><path d="M442.24523,109.00824s61.11019,6.17274,98.764,40.74013" style="fill:none;stroke:#2a1e17;stroke-linecap:round;stroke-linejoin:round"/><polygon points="495.015 106.028 517.812 61.699 541.243 107.928 495.015 106.028" style="fill:#a0c6f4"/><polygon points="499.448 105.395 522.245 61.066 545.676 107.295 499.448 105.395" style="fill:none;stroke:#2a1e17;stroke-linecap:round;stroke-linejoin:round"/><path d="M478.04716,28.14525S546.56465,34.318,589.1566,84.93452" style="fill:none;stroke:#2a1e17;stroke-linecap:round;stroke-linejoin:round"/><path d="M513.05536,224.58533c-3.76133-2.7665-6.232-4.62206-6.232-4.62206,1.04292-1.39057,17.53243-18.957,27.07852-33.11153C533.90183,186.85174,514.59442,225.71732,513.05536,224.58533Z" style="fill:#2a1e17"/><path d="M279.42252,96.54672c1.83628,3.06045,2.6524,1.83627,7.95719,1.42821s12.85392,3.46852,15.50631,9.99749,1.83628,7.54913.40806,8.36525-11.62973,2.0403-12.03779,4.08061" style="fill:none;stroke:#2a1e17;stroke-linecap:round;stroke-linejoin:round"/><polygon points="416.874 428.626 412.121 420.592 395.257 448.699 399.684 452.104 416.874 428.626" style="fill:#f9865f"/><path d="M304.89873,358.92537s-8.73807-14.20693-4.98952-21.16853l27.8767,2.98221Z" style="fill:#f9865f"/><path d="M304.89873,358.92537l1.67012,3.83755-5.14967,20.0837a6.876,6.876,0,0,0,2.167,6.91239v0l25.49449-37.68752a8.76439,8.76439,0,0,0-1.29477-11.33245l-5.697-5.29151Z"/><path d="M291.25629,120.41828c7.98364-.18972,18.1004-.69556,16.07705-6.76561S297.72242,92.40747,280.52393,96.96c0,0-6.07,5.05838,1.51752,14.16347S291.25629,120.41828,291.25629,120.41828Z" style="fill:#2a1e33"/><path d="M331.66448,341.07568s-13.62823-40.23575-2.09645-57.9018c9.51732-14.58,40.61038,9.13529,44.87063,12.33048l22.24732-40.179s-5.1358-7.20075-17.745-14.251-64.69875-28.16252-89.17814,10.4595c-9.04728,14.2742-9.18582,75.52783,8.16517,99.0027Z" style="fill:#7595ec"/><path d="M331.66448,341.07568s-13.62823-40.23575-2.09645-57.9018c9.51732-14.58,40.61038,9.13529,44.87063,12.33048" style="fill:none;stroke:#2a1e17;stroke-linecap:round;stroke-linejoin:round"/><path d="M396.686,255.32533c-10.11809,10.65061-40.117,62.53634-46.8627,87.335-9.023,33.17058-5.62989,60.68122,43.96354,114.5492l23.97265-34.91669S400.904,396.6975,404.051,372.5709c4.55267-34.90377,29.39118-68.74657,41.9593-90.21249Z" style="fill:#7595ec"/><polygon points="400.494 259.834 440.372 291.131 452.289 273.012 400.494 259.834" style="fill:#2a1e17"/><path d="M629.53431,226.928q9.32773,1.99881,14.21369,7.10685c3.2573,3.40536,1.77671,5.18207.59224,6.21849s-5.77431-.14806-9.77191-3.70148S629.53431,226.928,629.53431,226.928Z" style="fill:#ff8a66"/><path d="M506.82331,219.96327c1.04292-1.39057,17.53243-18.957,27.07852-33.11153,0,0,28.85421,32.33062,31.983,33.37355,1.1632.38773,8.23659.295,17.02213.204,14.84567-.15368,34.58016-.30214,38.94808,1.88182,6.95282,3.47641,11.12452,5.21462,12.86272,10.08159s2.42289,8.04617-1.7382,8.34339c-4.867.34764-7.99575-5.9099-7.99575-5.9099s-3.97667,2.40206-14.25328,6.25754c0,0-36.97459,14.35488-61.69015,7.41246C542.29134,246.60046,506.82331,219.96327,506.82331,219.96327Z" style="fill:#f9865f"/><path d="M282.687,90.83387c-3.17328,1.20886-5.10076,2.65239-3.26449,5.71285s2.6524,1.83627,7.95719,1.42821,12.85392,3.46852,15.50631,9.99749,1.83628,7.54913.40806,8.36525-11.62973,2.0403-12.03779,4.08061,4.13373,8.06253,13.51913,7.65447l2.24434-.40806s19.73782,19.27755,22.59425,22.134,23.84879,17.07827,35.41254,19.96921c8.78966,2.19741,26.59547-.637,37.29681-2.72476,5.19661-1.01383,8.71791-1.85159,8.71791-1.85159s-8.0303-14.465-9.66254-36.7043c0,0-19.2111,3.0863-31.977,5.8872,0,0-29.79028-16.60854-44.27644-23.95363,0,0-12.64989-15.50632-18.56677-17.54662S286.97165,89.20162,282.687,90.83387Z" style="fill:#f9865f"/><path d="M402.32336,167.04311c5.19661-1.01383,8.71791-1.85159,8.71791-1.85159s-9.71353-12.24429-11.34577-34.4836c0,0-4.39113,4.7326-3.02553,17.328C398.38625,163.866,402.32336,167.04311,402.32336,167.04311Z" style="fill:#2a1e17"/><path d="M399.22533,128.21805s.269,27.17734,7.55,38.51386l2.61168-1.04468s-34.31249,40.14046-45.40882,66.36816c-1.81612,4.29265,71.23875,50.95716,82.03207,50.303,0,0,35.59345-54.32495,47.76779-70.42906l13.08281,10.13918s25.66224-25.98775,27.041-35.21679c0,0-24.7869-30.16153-45.06525-38.99243s-38.39839-23.95944-60.18094-23.54906C409.79978,124.66549,399.22533,128.21805,399.22533,128.21805Z" style="fill:#fff7c9"/><polygon points="506.861 222.069 493.778 211.929 495.862 206.25 506.861 222.069" style="fill:#2a1e17"/><path d="M526.76247,114.60666c-2.29008,7.1247-8.90588,27.73544-16.285,30.28s-15.06171-.65033-15.06171-.65033l-7.86054,4.02248c-.877,2.631-7.081,4.8969-15.09164,5.205-5.93153.22813-9.54336-7.38841-7.78776-12.90286.8059-2.53139,3.8168-15.01277,3.8168-15.01277s6.36134-23.40973,12.21377-28.24435,11.3523-9.62228,26.97209-3.30789C531.59709,103.66515,526.76247,114.60666,526.76247,114.60666Z" style="fill:#f9865f"/><path d="M479.34438,115.62105c-1.05,4.375-5.6,13.12505-8.575,11.55s-4.025-5.6-1.925-13.3,3.85-25.20008,9.8-28.35009,8.575.525,8.575.525-2.625-12.775,5.075-14.525c0,0,2.625-1.225,1.575,7.525a11.719,11.719,0,0,1,12.6-7c9.625,1.05,12.95,14.525,12.95,14.525a4.84945,4.84945,0,0,1,5.075-3.675c4.375,0,11.025,6.475,9.45,13.65,0,0,11.19687-3.50476,17.15006,5.425,5.95,8.925,5.25,18.72506-9.1,22.57507-15.00407,4.02548-14.875-13.475-17.15006-15.75005s-4.725-4.9-13.125-1.75-17.15-6.125-17.15-6.125-1.4,11.2-2.8,12.25-4.2,2.45-3.5-2.8,1.575-4.725,1.05-6.125-2.89325-5.817-7.875-1.925C475.84437,106.696,479.34438,115.62105,479.34438,115.62105Z" style="fill:#2a1e33"/><path d="M481.72659,117.58118c-3.338-2.80393-5.65225-7.74534-2.71481-12.68558s7.74417-5.60785,9.2129-3.73857,2.03628,5.02123.65634,8.75869" style="fill:none;stroke:#2a1e33;stroke-linecap:round;stroke-linejoin:round"/><path d="M399.68361,452.10372l1.67012,3.83755-5.14967,20.0837a6.876,6.876,0,0,0,2.167,6.9124h0l25.49449-37.68751a8.76442,8.76442,0,0,0-1.29477-11.33246l-5.697-5.29151Z"/><path d="M487.2194,86.046s-1.9521-6.3501-7.80292-8.02176" style="fill:none;stroke:#2a1e33;stroke-linecap:round;stroke-linejoin:round"/><line x1="363.1785" y1="230.13878" x2="433.80827" y2="131.47667" style="fill:none;stroke:#2a1e17;stroke-linecap:round;stroke-linejoin:round"/><path d="M462.92019,138.37913c-2.54429,3.30868-3.70372,17.54671,8.00411,18.471s19.19172-4.219,19.19172-4.219" style="fill:none;stroke:#2a1e17;stroke-linecap:round;stroke-linejoin:round"/><path d="M306.55857,92.87417s8.07322,10.68575,9.3419,14.49176" style="fill:none;stroke:#2a1e17;stroke-linecap:round;stroke-linejoin:round"/><path d="M608.84769,236.13218s5.394,4.44085,16.1361-1.306c3.89541-2.084,1.12182-7.01481-3.809-5.78211s-10.7862-.61635-10.7862-.61635" style="fill:none;stroke:#2a1e17;stroke-linecap:round;stroke-linejoin:round"/><path d="M631.38337,227.54433s5.17595,6.0372,5.034,9.62385" style="fill:none;stroke:#2a1e17;stroke-linecap:round;stroke-linejoin:round"/><path d="M555.22488,226.88686s4.67829-6.23508,10.65993-6.66157" style="fill:none;stroke:#2a1e17;stroke-linecap:round;stroke-linejoin:round"/><path d="M357.91647,144.44755s2.7326-8.5094,11.48531-10.07313" style="fill:none;stroke:#2a1e17;stroke-linecap:round;stroke-linejoin:round"/><path d="M381.63469,273.58345l-10.44085,19.974s-34.428,58.26339-22.7466,95.90328" style="fill:none;stroke:#2a1e17;stroke-linecap:round;stroke-linejoin:round"/><path d="M412.136,340.42671l33.87428-58.0683s44.39818-64.39378,48.94093-73.47927l15.66816-28.9861" style="fill:none;stroke:#2a1e17;stroke-linecap:round;stroke-linejoin:round"/><path d="M367.90773,236.32352s60.23893,43.91923,78.10253,46.03489" style="fill:none;stroke:#2a1e17;stroke-linecap:round;stroke-linejoin:round"/><path d="M399.22533,128.21805s-.05418,27.56184,7.37589,38.86208" style="fill:none;stroke:#2a1e17;stroke-linecap:round;stroke-linejoin:round"/><path d="M531.96725,182.48354c-1.89182,11.36033-27.041,35.21678-27.041,35.21678" style="fill:none;stroke:#2a1e17;stroke-linecap:round;stroke-linejoin:round"/><circle cx="344.33652" cy="320.38853" r="3.57713" style="fill:#2a1e17"/><polygon points="679.935 397.252 677.958 383.57 689.628 391.329 683.521 392.66 679.935 397.252" style="fill:none;stroke:#2a1e17;stroke-linecap:round;stroke-linejoin:round"/><path d="M292.914,163.68915c-22.11316-19.51161-58.65489,29.14282,75.06054,184.00767,77.13519,89.33547,137.74143,97.34667,145.951,66.26677,14.72874-55.76005-38.4639-69.855-18.67182-48.0155,28.78039,31.75767,110.6452,38.46664,171.64713,8.83158,60.19263-29.24191,23.19393-74.65267,19.45686-77.302" style="fill:none;stroke:#2a1e17;stroke-linecap:round;stroke-linejoin:round"/><circle cx="667.86482" cy="374.50128" r="3.57713" style="fill:#2a1e17"/><line x1="615.8151" y1="403.6962" x2="721.84231" y2="343.93541" style="fill:none;stroke:#2a1e17;stroke-linecap:round;stroke-linejoin:round"/><circle cx="295.12022" cy="166.5808" r="3.57713" style="fill:#2a1e17"/><circle cx="386.32617" cy="92.73226" r="7.67396" style="fill:#ff6d66"/><path d="M247.07544,34.20081a3.37353,3.37353,0,1,0,3.37353,3.37352,3.37353,3.37353,0,0,0-3.37353-3.37352Z" style="fill:#a0c6f4"/><circle cx="699.09932" cy="449.81752" r="3.37352" style="fill:#fad8b0"/><path d="M638.82389,297.46293l-36.26544-17.0185a3.765,3.765,0,0,1,.08316-6.85444l67.46951-29.68658a3.76492,3.76492,0,0,1,3.00131-.01359L719.455,263.7816Z" style="fill:#2a1e33"/><path d="M636.57737,241.53056c.09253,15.00666,2.24652,55.93237,2.24652,55.93237L719.455,263.7816l-1.808-56.95022a4.8972,4.8972,0,0,0-6.92547-4.30093l-69.4249,31.63666A8.04068,8.04068,0,0,0,636.57737,241.53056Z" style="fill:#c6cbcb"/><path d="M638.82389,297.46293,719.455,263.7816l-1.808-56.95022s-.53721-6.21794-6.92547-4.30093" style="fill:none;stroke:#2a1e17;stroke-linecap:round;stroke-linejoin:round"/><line x1="677.85083" y1="256.53097" x2="683.29472" y2="243.66359" style="fill:none;stroke:#2a1e17;stroke-linecap:round;stroke-linejoin:round"/><line x1="683.29472" y1="256.53097" x2="688.73861" y2="243.66359" style="fill:none;stroke:#2a1e17;stroke-linecap:round;stroke-linejoin:round"/><circle cx="261.61862" cy="393.51773" r="3.37352" style="fill:#ff6d66"/><circle cx="546.05299" cy="410.23067" r="4.68717" style="fill:#ff6d66"/><path d="M296.57943,443.53617a100.10346,100.10346,0,0,0,42.59777,9.13343,1.91871,1.91871,0,0,1,1.90565,2.16319l-2.94336,23.36014a1.92219,1.92219,0,0,1-1.55563,1.651c-5.97053,1.12095-30.036,4.42346-48.03736-10.84191a1.91648,1.91648,0,0,1-.59852-1.955l5.94871-22.26922A1.91961,1.91961,0,0,1,296.57943,443.53617Z" style="fill:#fff7dc"/><path d="M298.69467,450.40188s10.40017,14.61162,14.10791,16.70478,23.72809-9.84011,23.72809-9.84011" style="fill:none;stroke:#2a1e17;stroke-linecap:round;stroke-linejoin:round"/><line x1="322.60656" y1="465.06928" x2="333.53124" y2="476.29914" style="fill:none;stroke:#2a1e17;stroke-linecap:round;stroke-linejoin:round"/><line x1="307.42939" y1="462.90503" x2="294.65112" y2="466.37869" style="fill:none;stroke:#2a1e17;stroke-linecap:round;stroke-linejoin:round"/><rect x="618.88749" y="167.19529" width="12.20516" height="12.20516" style="fill:#ffe1c0"/><polygon points="620.541 331.827 624.169 338.11 627.797 344.393 620.541 344.393 613.286 344.393 616.914 338.11 620.541 331.827" style="fill:#a0c6f4"/><path d="M327.20625,53.46583l.94537-28.52495c-.09967-2.66294.9848-3.51122,2.62546-3.87411,7.75-1.7142,31.30437-6.965,56.92383.60818,3.31015.97849,3.20444,2.73082,3.15133,4.30818l-.91572,27.19534c-.06724,1.997-2.15338,3.44283-4.48216,3.10185-7.47953-1.09512-17.65326-1.43361-27.98477-1.34641a158.4561,158.4561,0,0,0-26.8439,2.16523C328.08516,57.58815,327.13237,55.69514,327.20625,53.46583Z" style="fill:none;stroke:#2a1e17;stroke-linecap:round;stroke-linejoin:round"/><path d="M335.82758,49.29591l14.91094-17.45572,16.50678,16.2902C361.55442,46.27687,335.82758,49.29591,335.82758,49.29591Z" style="fill:none;stroke:#2a1e17;stroke-linecap:round;stroke-linejoin:round"/><polyline points="359.879 39.921 371.934 30.273 382.092 37.523 382.474 48.859 367.245 48.13" style="fill:none;stroke:#2a1e17;stroke-linecap:round;stroke-linejoin:round"/><ellipse cx="339.39995" cy="30.25943" rx="2.48986" ry="2.93584" transform="translate(275.15653 364.89467) rotate(-84.22733)" style="fill:none;stroke:#2a1e17;stroke-linecap:round;stroke-linejoin:round"/><path d="M615.547,424.0629l10.00332,18.47085c1.05323,1.65448.6797,2.59646-.22757,3.43687-4.28567,3.96986-17.29578,16.06132-36.38483,20.77447-2.46639.609-3.05066-.54344-3.60329-1.56514l-9.52789-17.61524a2.70594,2.70594,0,0,1,1.69406-3.63653,145.477,145.477,0,0,0,18.27679-9.54777,116.62119,116.62119,0,0,0,16.2467-11.3543C613.45628,421.77108,614.76521,422.61935,615.547,424.0629Z" style="fill:none;stroke:#2a1e17;stroke-linecap:round;stroke-linejoin:round"/><path d="M611.62074,429.91657l-2.98265,16.63108-16.541-4.21154C596.401,441.398,611.62074,429.91657,611.62074,429.91657Z" style="fill:none;stroke:#2a1e17;stroke-linecap:round;stroke-linejoin:round"/><polyline points="599.828 444.813 595.757 455.422 586.609 454.593 582.153 447.534 592.097 442.336" style="fill:none;stroke:#2a1e17;stroke-linecap:round;stroke-linejoin:round"/><ellipse cx="616.42812" cy="443.33678" rx="2.16075" ry="1.83252" transform="translate(-128.5118 296.38221) rotate(-24.56432)" style="fill:none;stroke:#2a1e17;stroke-linecap:round;stroke-linejoin:round"/><path d="M566.85254,108.736l40.64016,31.10522a2.00738,2.00738,0,0,0,2.83539-.4023l6.13589-8.31658a2.0074,2.0074,0,0,0-.36118-2.75917l-40.06657-32.059a2.00738,2.00738,0,0,0-2.8803.39045l-6.70948,9.2704A2.00738,2.00738,0,0,0,566.85254,108.736Z" style="fill:#fff;stroke:#2a1e17;stroke-linecap:round;stroke-linejoin:round"/><polygon points="569.861 107.348 579.717 114.263 585.532 107.323 575.674 99.101 569.861 107.348" style="fill:#ff6d66"/><polygon points="583.427 116.96 593.295 124.79 598.585 118.282 588.651 110.221 583.427 116.96" style="fill:#fad8b0"/><polygon points="596.615 127.798 606.471 134.714 611.165 128.682 601.83 120.869 596.615 127.798" style="fill:#a0c6f4"/><path d="M647.94228,65.2488l9.26035,77.82407a3.0741,3.0741,0,0,0,3.46955,2.68246l15.68083-2.1469a3.07409,3.07409,0,0,0,2.64269-3.343l-7.60091-78.21312a3.07409,3.07409,0,0,0-3.50452-2.74439L650.55,61.84383A3.07409,3.07409,0,0,0,647.94228,65.2488Z" style="fill:#fff;stroke:#2a1e17;stroke-linecap:round;stroke-linejoin:round"/><polygon points="652.679 67.068 655.613 85.271 669.442 84.242 667.938 64.642 652.679 67.068" style="fill:#ff6d66"/><polygon points="656.616 92.223 658.561 111.416 671.353 110.272 669.591 90.76 656.616 92.223" style="fill:#91ba83"/><polygon points="658.804 118.272 661.739 136.475 673.373 135.186 671.978 116.596 658.804 118.272" style="fill:#fad8b0"/><path d="M627.72574,81.81826l25.64549,75.38222a2.44534,2.44534,0,0,0,3.14331,1.51319l16.06252-5.7825a2.44534,2.44534,0,0,0,1.50318-3.03829L649.9989,73.76477a2.44533,2.44533,0,0,0-3.18076-1.5556l-17.62668,6.5284A2.44533,2.44533,0,0,0,627.72574,81.81826Z" style="fill:#fff;stroke:#2a1e17;stroke-linecap:round;stroke-linejoin:round"/><polygon points="632.934 83.192 639.59 100.387 652.902 96.504 647.356 77.646 632.934 83.192" style="fill:#a0c6f4"/><polygon points="642.016 106.979 647.91 125.347 660.184 121.568 654.404 102.85 642.016 106.979" style="fill:#f9865f"/><polygon points="649.574 132.003 656.23 149.198 667.342 145.517 662.111 127.624 649.574 132.003" style="fill:#fad8b0"/><rect x="297.46809" y="177.0347" width="144.46248" height="32.476" rx="5.48391" style="fill:#7595ec"/><rect x="312.85985" y="186.59579" width="75.54199" height="4.942" rx="1.81159" style="fill:#fff"/><line x1="313.56585" y1="197.9398" x2="433.58584" y2="197.9398" style="fill:none;stroke:#2a1e17;stroke-linecap:round;stroke-linejoin:round"/><path d="M247.908,116.42664h3.64912a1.69683,1.69683,0,0,1,1.69683,1.69683V123.892a1.69683,1.69683,0,0,1-1.69683,1.69683H247.908a0,0,0,0,1,0,0v-9.16219A0,0,0,0,1,247.908,116.42664Z" transform="translate(170.93158 -145.61871) rotate(47.59122)" style="fill:#91ba83"/><rect x="234.43318" y="107.07061" width="16.95341" height="11.68636" rx="0.97982" transform="translate(323.36195 368.41761) rotate(-132.40878)" style="fill:none;stroke:#2a1e17;stroke-linecap:round;stroke-linejoin:round"/><rect x="211.61688" y="159.49515" width="12.10054" height="11.04832" style="fill:#ff6d66"/><polyline points="211.617 152.386 211.617 159.495 204.379 159.495" style="fill:none;stroke:#2a1e17;stroke-linecap:round;stroke-linejoin:round"/><rect x="610.24261" y="34.73136" width="12.10054" height="11.04832" style="fill:#fad8b0"/><polyline points="610.243 27.622 610.243 34.731 603.005 34.731" style="fill:none;stroke:#2a1e17;stroke-linecap:round;stroke-linejoin:round"/><path d="M282.76485,103.0219c-125.438-51.99823-222.006,48.14626,14.44933,201.49549,18.61891,12.075,47.17255,16.312,47.17255,16.312" style="fill:none;stroke:#2a1e17;stroke-linecap:round;stroke-linejoin:round"/><circle cx="167.39568" cy="106.51861" r="3.57713" style="fill:#2a1e17"/><polygon points="144.634 86.887 148.549 83.129 157.548 88.278 162.071 102.234 148.258 96.453 144.634 86.887" style="fill:none;stroke:#2a1e17;stroke-linecap:round;stroke-linejoin:round"/><polygon points="148.549 83.129 144.634 86.887 142.442 84.225 146.2 80.624 148.549 83.129" style="fill:none;stroke:#2a1e17;stroke-linecap:round;stroke-linejoin:round"/><line x1="162.07068" y1="102.23391" x2="153.08848" y2="92.36544" style="fill:none;stroke:#2a1e17;stroke-linecap:round;stroke-linejoin:round"/><path d="M183.81364,352.63687l9.75,50.24036a2.00738,2.00738,0,0,0,2.38774,1.58114l10.10954-2.14756a2.00739,2.00739,0,0,0,1.56129-2.30344l-8.68791-50.573a2.00738,2.00738,0,0,0-2.41347-1.6198l-11.17166,2.48022A2.00738,2.00738,0,0,0,183.81364,352.63687Z" style="fill:#fff;stroke:#2a1e17;stroke-linecap:round;stroke-linejoin:round"/><polygon points="186.985 353.595 189.766 365.31 198.723 363.978 196.807 351.286 186.985 353.595" style="fill:#ff6d66"/><polygon points="190.751 369.789 192.935 382.196 201.211 380.839 199.132 368.217 190.751 369.789" style="fill:#fad8b0"/><polygon points="193.421 386.649 196.203 398.364 203.718 396.968 201.921 384.928 193.421 386.649" style="fill:#a0c6f4"/><polygon points="463.001 478.552 504.206 467.521 505.778 471.986 464.11 482.803 463.001 478.552" style="fill:none;stroke:#2a1e17;stroke-linecap:round;stroke-linejoin:round"/><line x1="457.28497" y1="472.78936" x2="458.47365" y2="476.5307" style="fill:none;stroke:#2a1e17;stroke-linecap:round;stroke-linejoin:round"/><line x1="456.1238" y1="475.22883" x2="459.60091" y2="474.03465" style="fill:none;stroke:#2a1e17;stroke-linecap:round;stroke-linejoin:round"/><line x1="455.28499" y1="487.07532" x2="457.52721" y2="494.13266" style="fill:none;stroke:#2a1e17;stroke-linecap:round;stroke-linejoin:round"/><line x1="453.37558" y1="491.54994" x2="459.56648" y2="489.58299" style="fill:none;stroke:#2a1e17;stroke-linecap:round;stroke-linejoin:round"/><line x1="445.869" y1="475.42804" x2="448.79359" y2="484.77451" style="fill:none;stroke:#2a1e17;stroke-linecap:round;stroke-linejoin:round"/><line x1="442.96237" y1="481.24867" x2="451.63923" y2="478.47906" style="fill:none;stroke:#2a1e17;stroke-linecap:round;stroke-linejoin:round"/><polygon points="162.566 30.942 136.491 19.172 137.571 16.187 163.796 28.265 162.566 30.942" style="fill:none;stroke:#2a1e17;stroke-linecap:round;stroke-linejoin:round;stroke-width:0.6706902384758px"/><line x1="163.08714" y1="36.36124" x2="164.05874" y2="33.91419" style="fill:none;stroke:#2a1e17;stroke-linecap:round;stroke-linejoin:round;stroke-width:0.6706902384758px"/><line x1="164.72584" y1="35.58787" x2="162.41362" y2="34.73133" style="fill:none;stroke:#2a1e17;stroke-linecap:round;stroke-linejoin:round;stroke-width:0.6706902384758px"/><line x1="170.19173" y1="29.79402" x2="172.02447" y2="25.17811" style="fill:none;stroke:#2a1e17;stroke-linecap:round;stroke-linejoin:round;stroke-width:0.6706902384758px"/><line x1="173.08306" y1="28.28184" x2="169.03386" y2="26.6741" style="fill:none;stroke:#2a1e17;stroke-linecap:round;stroke-linejoin:round;stroke-width:0.6706902384758px"/><line x1="170.13415" y1="39.83899" x2="172.5847" y2="33.74494" style="fill:none;stroke:#2a1e17;stroke-linecap:round;stroke-linejoin:round;stroke-width:0.6706902384758px"/><line x1="174.11475" y1="38.0515" x2="168.43414" y2="35.80484" style="fill:none;stroke:#2a1e17;stroke-linecap:round;stroke-linejoin:round;stroke-width:0.6706902384758px"/><path d="M260.00744,251.14755C241.6283,237.915,223.571,217.35139,231.49193,196.22879c0,0,12.67356-8.449,32.74,2.11226l20.06647,10.5613Z" style="fill:#fad8b0"/><path d="M251.92383,340.01953c-7.34473-3.41015-44.18262-22.00488-50.64551-54.31348-5.668-28.34472,16.98242-66.85888,26.94043-82.04736-2.18359,22.0918,20.26563,41.04053,30.91309,48.70654,10.667,7.67969,18.46679,11.36915,29.40332,15.44727Z" style="fill:#fff"/><path d="M226.63928,208.90456c1.38648,20.47146,21.59839,37.46571,31.61524,44.67761A110.95561,110.95561,0,0,0,286.44141,268.627l-35.19434,69.41089c-9.45874-4.59265-42.493-22.60513-48.49731-52.62637-5.08106-25.40515,13.1737-59.35751,23.88952-76.50694m4.85266-12.67577s-39.07678,52.8065-31.684,89.77106c7.393,36.96454,52.80652,55.97488,52.80652,55.97488l38.02075-74.98523c-11.88147-4.35653-19.60034-7.9024-30.6278-15.842-18.37915-13.23257-36.43653-33.79616-28.51551-54.91876Z" style="fill:#fad8b0"/><path d="M221.216,226.9161a45.3131,45.3131,0,0,0,23.48576,32.577" style="fill:none;stroke:#2a1e17;stroke-linecap:round;stroke-linejoin:round"/><line x1="256.06584" y1="267.06916" x2="277.27878" y2="278.43323" style="fill:none;stroke:#2a1e17;stroke-linecap:round;stroke-linejoin:round"/><path d="M224.24643,257.2203s6.81845,15.15209,28.789,25.001" style="fill:none;stroke:#2a1e17;stroke-linecap:round;stroke-linejoin:round"/><path d="M206.82152,259.49311s.75761,15.9097,11.36407,21.21294" style="fill:none;stroke:#2a1e17;stroke-linecap:round;stroke-linejoin:round"/><path d="M231.06488,204.188s-1.96567,20.43152,28.94256,46.9596" style="fill:none;stroke:#2a1e17;stroke-linecap:round;stroke-linejoin:round"/><path d="M242.429,207.976s9.84886-.75761,24.24336,9.84886" style="fill:none;stroke:#2a1e17;stroke-linecap:round;stroke-linejoin:round"/><path d="M196.11312,273.21027c-.63327,10.13225.63326,46.86169,53.82762,70.29253" style="fill:none;stroke:#2a1e17;stroke-linecap:round;stroke-linejoin:round"/><path d="M535.7882,252.77615l-22.563,45.21966s15.30346,5.63177,3.34024,23.17492c0,0,28.28539,11.7295,46.79346-18.73665S535.7882,252.77615,535.7882,252.77615Z" style="fill:#91ba83"/><path d="M484.14844,391.51758c-11.66114,0-23.95606-4.79883-36.56348-14.26856l42.75195-70.82129L515.874,322.50781l.11719.04883a38.20821,38.20821,0,0,0,13.499,2.334,37.38038,37.38038,0,0,0,24.00586-8.55566L521.252,371.499c-.08984.13086-13.51757,20.0166-37.10156,20.01856Z" style="fill:#fff"/><path d="M490.8313,308.511l24.1355,15.19833.215.13535.23462.09729a39.85664,39.85664,0,0,0,14.07434,2.44857,38.87778,38.87778,0,0,0,19.32849-5.02673l-28.81384,49.29535c-.77978,1.13989-13.6217,19.35812-35.85461,19.35812-10.99683,0-22.61841-4.42572-34.57679-13.16147L490.8313,308.511m72.52759-6.07694c-10.45716,17.21344-24.03382,20.95648-33.86817,20.95648a36.93419,36.93419,0,0,1-12.92529-2.21981l-26.72253-16.8274-44.23853,73.28342c14.81421,11.41949,27.73486,15.39053,38.54639,15.39053,24.71508,0,38.39636-20.76168,38.39636-20.76168l40.81177-69.82154Z" style="fill:#96bd89"/><path d="M513.2252,297.99581s16.82888,5.94194,3.34024,23.17492" style="fill:none;stroke:#2a1e17;stroke-linecap:round;stroke-linejoin:round"/><path d="M489.31926,302.77248s22.923,20.997,35.61329,20.85565,27.56952-3.16274,36.34866-18.30034" style="fill:none;stroke:#2a1e17;stroke-linecap:round;stroke-linejoin:round"/><path d="M492.13152,329.93625s15.734,13.97246,33.3289,9.48448" style="fill:none;stroke:#2a1e17;stroke-linecap:round;stroke-linejoin:round"/><path d="M508.65777,350.81477s8.25551,6.18709,19.79464.3359" style="fill:none;stroke:#2a1e17;stroke-linecap:round;stroke-linejoin:round"/><path d="M470.682,359.42435s19.0481,18.94288,49.03242,6.44824" style="fill:none;stroke:#2a1e17;stroke-linecap:round;stroke-linejoin:round"/><path d="M481.04728,340.94867s7.7716,5.55663,12.63973,7.33048" style="fill:none;stroke:#2a1e17;stroke-linecap:round;stroke-linejoin:round"/><path d="M539.66355,265.90111s17.39032,5.68794,19.474,28.63488" style="fill:none;stroke:#2a1e17;stroke-linecap:round;stroke-linejoin:round"/><path d="M548.40444,294.25813s8.00666,12.38942-5.52615,24.7803" style="fill:none;stroke:#2a1e17;stroke-linecap:round;stroke-linejoin:round"/><path d="M447.21637,381.085s43.6675,37.39905,75.35867-6.33266" style="fill:none;stroke:#2a1e17;stroke-linecap:round;stroke-linejoin:round"/><line x1="132.01722" y1="238.66138" x2="142.19711" y2="238.66138" style="fill:none;stroke:#ff6d66;stroke-linecap:round;stroke-linejoin:round"/><line x1="699.09932" y1="116.22062" x2="709.27921" y2="116.22062" style="fill:none;stroke:#ff6d66;stroke-linecap:round;stroke-linejoin:round"/><line x1="426.10287" y1="46.37461" x2="436.28276" y2="46.37461" style="fill:none;stroke:#fad8b0;stroke-miterlimit:10"/><line x1="718.53488" y1="169.02113" x2="728.55439" y2="170.82104" style="fill:none;stroke:#fad8b0;stroke-miterlimit:10"/><line x1="318.6485" y1="423.03046" x2="328.82839" y2="423.03046" style="fill:none;stroke:#a0c6f4;stroke-linecap:round;stroke-linejoin:round"/><circle cx="740.46683" cy="296.13022" r="3.37352" style="fill:#91ba83"/><circle cx="107.05167" cy="134.32728" r="3.37352" style="fill:#91ba83"/><path d="M984.31776,391.25816s28.08633-83.62867-97.47945-34.29131C756.29375,408.26047,704.1569,515.81356,725.54417,524.30218s53.24192-10.662,53.24192-10.662" style="fill:none;stroke:#2a1e17;stroke-linecap:round;stroke-linejoin:round"/></g></svg>